<?xml version="1.0" encoding="UTF-8" standalone="no"?>
<!DOCTYPE svg PUBLIC "-//W3C//DTD SVG 1.1//EN" "http://www.w3.org/Graphics/SVG/1.1/DTD/svg11.dtd">
<svg width="100%" height="100%" viewBox="0 0 1588 359" version="1.1" xmlns="http://www.w3.org/2000/svg" xmlns:xlink="http://www.w3.org/1999/xlink" xml:space="preserve" xmlns:serif="http://www.serif.com/" style="fill-rule:evenodd;clip-rule:evenodd;stroke-linejoin:round;stroke-miterlimit:2;">
    <g transform="matrix(4.16667,0,0,4.16667,0,0)">
        <path d="M48.593,61.704L48.593,25.258L80.155,43.481L48.593,61.704ZM118.946,14.24C117.549,9.013 113.433,4.897 108.206,3.5C98.731,0.961 60.742,0.961 60.742,0.961C60.742,0.961 22.753,0.961 13.278,3.5C8.052,4.897 3.935,9.013 2.538,14.24C0,23.714 0,43.481 0,43.481C0,43.481 0,63.248 2.538,72.721C3.935,77.948 8.052,82.065 13.278,83.462C22.753,86 60.742,86 60.742,86C60.742,86 98.731,86 108.206,83.462C113.433,82.065 117.549,77.948 118.946,72.721C121.485,63.248 121.485,43.481 121.485,43.481C121.485,43.481 121.485,23.714 118.946,14.24Z" style="fill:white;fill-rule:nonzero;"/>
        <path d="M189.801,69.984C190.466,68.248 190.8,65.41 190.8,61.471L190.8,44.877C190.8,41.055 190.466,38.261 189.801,36.494C189.135,34.728 187.962,33.844 186.283,33.844C184.661,33.844 183.516,34.728 182.851,36.494C182.185,38.261 181.852,41.055 181.852,44.877L181.852,61.471C181.852,65.41 182.17,68.248 182.808,69.984C183.444,71.722 184.602,72.59 186.283,72.59C187.962,72.59 189.135,71.722 189.801,69.984ZM176.336,78.325C173.931,76.705 172.222,74.184 171.21,70.766C170.196,67.35 169.69,62.803 169.69,57.127L169.69,49.395C169.69,43.661 170.268,39.056 171.427,35.582C172.585,32.107 174.394,29.573 176.857,27.98C179.318,26.388 182.547,25.591 186.544,25.591C190.482,25.591 193.638,26.402 196.013,28.024C198.387,29.645 200.125,32.18 201.226,35.625C202.325,39.072 202.876,43.661 202.876,49.395L202.876,57.127C202.876,62.803 202.34,67.365 201.269,70.81C200.197,74.257 198.459,76.776 196.056,78.368C193.652,79.961 190.395,80.757 186.283,80.757C182.054,80.757 178.738,79.946 176.336,78.325Z" style="fill:white;fill-rule:nonzero;"/>
        <path d="M362.376,34.839C361.769,35.593 361.362,36.823 361.16,38.531C360.956,40.24 360.857,42.832 360.857,46.307L360.857,50.13L369.63,50.13L369.63,46.307C369.63,42.89 369.514,40.298 369.283,38.531C369.051,36.765 368.632,35.521 368.024,34.796C367.415,34.072 366.474,33.71 365.2,33.71C363.925,33.71 362.984,34.087 362.376,34.839ZM360.857,57.254L360.857,59.947C360.857,63.365 360.956,65.927 361.16,67.635C361.362,69.344 361.781,70.59 362.42,71.372C363.057,72.153 364.04,72.545 365.374,72.545C367.168,72.545 368.4,71.849 369.066,70.459C369.731,69.069 370.093,66.753 370.151,63.509L380.49,64.117C380.548,64.582 380.577,65.218 380.577,66.028C380.577,70.952 379.231,74.63 376.537,77.062C373.845,79.494 370.035,80.711 365.113,80.711C359.206,80.711 355.064,78.858 352.69,75.15C350.314,71.445 349.127,65.711 349.127,57.949L349.127,48.652C349.127,40.66 350.358,34.826 352.82,31.147C355.281,27.469 359.495,25.63 365.461,25.63C369.572,25.63 372.729,26.383 374.93,27.889C377.13,29.396 378.68,31.741 379.578,34.926C380.476,38.112 380.925,42.514 380.925,48.131L380.925,57.254L360.857,57.254Z" style="fill:white;fill-rule:nonzero;"/>
        <path d="M147.142,56.256L133.502,6.997L145.404,6.997L150.182,29.324C151.399,34.828 152.296,39.519 152.875,43.398L153.223,43.398C153.628,40.618 154.526,35.957 155.916,29.411L160.868,6.997L172.77,6.997L158.957,56.256L158.957,79.888L147.142,79.888L147.142,56.256Z" style="fill:white;fill-rule:nonzero;"/>
        <path d="M241.586,26.633L241.586,79.888L232.203,79.888L231.16,73.373L230.9,73.373C228.351,78.296 224.528,80.757 219.432,80.757C215.899,80.757 213.293,79.599 211.613,77.282C209.933,74.966 209.094,71.345 209.094,66.423L209.094,26.633L221.083,26.633L221.083,65.727C221.083,68.103 221.344,69.797 221.865,70.809C222.386,71.824 223.255,72.33 224.471,72.33C225.514,72.33 226.513,72.012 227.468,71.374C228.424,70.737 229.133,69.927 229.597,68.942L229.597,26.633L241.586,26.633Z" style="fill:white;fill-rule:nonzero;"/>
        <path d="M303.082,26.633L303.082,79.888L293.699,79.888L292.656,73.373L292.397,73.373C289.846,78.296 286.024,80.757 280.928,80.757C277.395,80.757 274.789,79.599 273.109,77.282C271.429,74.966 270.59,71.345 270.59,66.423L270.59,26.633L282.579,26.633L282.579,65.727C282.579,68.103 282.839,69.797 283.36,70.809C283.882,71.824 284.751,72.33 285.967,72.33C287.01,72.33 288.009,72.012 288.964,71.374C289.92,70.737 290.629,69.927 291.093,68.942L291.093,26.633L303.082,26.633Z" style="fill:white;fill-rule:nonzero;"/>
        <path d="M274.164,16.642L262.262,16.642L262.262,79.888L250.534,79.888L250.534,16.642L238.632,16.642L238.632,6.998L274.164,6.998L274.164,16.642Z" style="fill:white;fill-rule:nonzero;"/>
        <path d="M331.772,56.869C331.772,60.75 331.611,63.791 331.293,65.991C330.975,68.193 330.439,69.757 329.686,70.682C328.933,71.609 327.918,72.072 326.646,72.072C325.66,72.072 324.748,71.841 323.909,71.377C323.068,70.914 322.389,70.219 321.867,69.292L321.867,39.059C322.272,37.612 322.967,36.424 323.952,35.497C324.937,34.572 326.007,34.107 327.166,34.107C328.383,34.107 329.323,34.585 329.99,35.54C330.655,36.496 331.119,38.103 331.38,40.363C331.641,42.621 331.772,45.835 331.772,50.005L331.772,56.869ZM342.761,35.146C342.036,31.788 340.863,29.355 339.242,27.848C337.62,26.343 335.39,25.59 332.553,25.59C330.352,25.59 328.296,26.213 326.385,27.458C324.474,28.703 322.996,30.339 321.954,32.366L321.866,32.366L321.867,4.305L310.313,4.305L310.313,79.887L320.216,79.887L321.433,74.849L321.693,74.849C322.619,76.644 324.009,78.063 325.863,79.106C327.716,80.148 329.773,80.67 332.032,80.67C336.085,80.67 339.068,78.801 340.98,75.066C342.891,71.33 343.847,65.496 343.847,57.56L343.847,49.134C343.847,43.169 343.484,38.506 342.761,35.146Z" style="fill:white;fill-rule:nonzero;"/>
    </g>
</svg>
